<svg width="24" height="24" viewBox="0 0 24 24" fill="none" xmlns="http://www.w3.org/2000/svg">
  <path d="M3 3H21V5H3V3Z" fill="#8B4513"/>
  <path d="M4 5L6 21H8L6 5H4Z" fill="#8B4513"/>
  <path d="M16 5L18 21H20L18 5H16Z" fill="#8B4513"/>
  <path d="M6 7L18 7L17 19L7 19L6 7Z" fill="none" stroke="#4682B4" stroke-width="1"/>
  <path d="M8 9L16 9M8 11L16 11M8 13L16 13M8 15L16 15M8 17L16 17" stroke="#4682B4" stroke-width="0.5"/>
  <path d="M10 7L10 19M12 7L12 19M14 7L14 19" stroke="#4682B4" stroke-width="0.5"/>
</svg>