<svg width="24" height="24" viewBox="0 0 24 24" fill="none" xmlns="http://www.w3.org/2000/svg">
  <path d="M12 2C12 2 8 6 8 10C8 14 10 16 12 16C14 16 16 14 16 10C16 6 12 2 12 2Z" fill="#4169E1" opacity="0.7"/>
  <path d="M12 4C12 4 10 7 10 10C10 12 11 13 12 13C13 13 14 12 14 10C14 7 12 4 12 4Z" fill="#87CEEB" opacity="0.8"/>
  <circle cx="12" cy="8" r="1" fill="#FFFFFF" opacity="0.9"/>
  <path d="M8 18C8 18 10 16 12 16C14 16 16 18 16 18C16 20 14 22 12 22C10 22 8 20 8 18Z" fill="#4169E1" opacity="0.5"/>
  <path d="M4 12C6 10 6 14 4 12ZM20 12C18 10 18 14 20 12Z" fill="#87CEEB" opacity="0.6"/>
</svg>